<svg width="578" height="110" viewBox="0 0 578 110" fill="none" xmlns="http://www.w3.org/2000/svg">
<rect width="14" height="14" rx="3" fill="#4D3D7C"/>
<rect y="80" width="14" height="14" rx="3" fill="#4D3D7C"/>
<rect y="96" width="14" height="14" rx="3" fill="#4D3D7C"/>
<rect x="16" width="14" height="14" rx="3" fill="#4D3D7C"/>
<rect x="16" y="64" width="14" height="14" rx="3" fill="#4D3D7C"/>
<rect x="16" y="96" width="14" height="14" rx="3" fill="#4D3D7C"/>
<rect x="32" width="14" height="14" rx="3" fill="#4D3D7C"/>
<rect x="32" y="48" width="14" height="14" rx="3" fill="#4D3D7C"/>
<rect x="32" y="96" width="14" height="14" rx="3" fill="#4D3D7C"/>
<rect x="48" width="14" height="14" rx="3" fill="#4D3D7C"/>
<rect x="48" y="32" width="14" height="14" rx="3" fill="#4D3D7C"/>
<rect x="48" y="96" width="14" height="14" rx="3" fill="#4D3D7C"/>
<rect x="64" width="14" height="14" rx="3" fill="#4D3D7C"/>
<rect x="64" y="16" width="14" height="14" rx="3" fill="#4D3D7C"/>
<rect x="64" y="96" width="14" height="14" rx="3" fill="#4D3D7C"/>
<rect x="97" width="14" height="14" rx="3" fill="#4D3D7C"/>
<rect x="97" y="16" width="14" height="14" rx="3" fill="#4D3D7C"/>
<rect x="97" y="32" width="14" height="14" rx="3" fill="#4D3D7C"/>
<rect x="97" y="48" width="14" height="14" rx="3" fill="#4D3D7C"/>
<rect x="97" y="64" width="14" height="14" rx="3" fill="#4D3D7C"/>
<rect x="97" y="80" width="14" height="14" rx="3" fill="#4D3D7C"/>
<rect x="97" y="96" width="14" height="14" rx="3" fill="#4D3D7C"/>
<rect x="113" width="14" height="14" rx="3" fill="#4D3D7C"/>
<rect x="113" y="48" width="14" height="14" rx="3" fill="#4D3D7C"/>
<rect x="113" y="96" width="14" height="14" rx="3" fill="#4D3D7C"/>
<rect x="129" width="14" height="14" rx="3" fill="#4D3D7C"/>
<rect x="129" y="48" width="14" height="14" rx="3" fill="#4D3D7C"/>
<rect x="129" y="96" width="14" height="14" rx="3" fill="#4D3D7C"/>
<rect x="145" width="14" height="14" rx="3" fill="#4D3D7C"/>
<rect x="145" y="48" width="14" height="14" rx="3" fill="#4D3D7C"/>
<rect x="145" y="96" width="14" height="14" rx="3" fill="#4D3D7C"/>
<rect x="161" width="14" height="14" rx="3" fill="#4D3D7C"/>
<rect x="161" y="96" width="14" height="14" rx="3" fill="#4D3D7C"/>
<rect x="194" width="14" height="14" rx="3" fill="#4D3D7C"/>
<rect x="194" y="16" width="14" height="14" rx="3" fill="#4D3D7C"/>
<rect x="194" y="32" width="14" height="14" rx="3" fill="#4D3D7C"/>
<rect x="194" y="48" width="14" height="14" rx="3" fill="#4D3D7C"/>
<rect x="194" y="64" width="14" height="14" rx="3" fill="#4D3D7C"/>
<rect x="194" y="80" width="14" height="14" rx="3" fill="#4D3D7C"/>
<rect x="194" y="96" width="14" height="14" rx="3" fill="#4D3D7C"/>
<rect x="210" width="14" height="14" rx="3" fill="#4D3D7C"/>
<rect x="210" y="48" width="14" height="14" rx="3" fill="#4D3D7C"/>
<rect x="226" width="14" height="14" rx="3" fill="#4D3D7C"/>
<rect x="226" y="48" width="14" height="14" rx="3" fill="#4D3D7C"/>
<rect x="226" y="64" width="14" height="14" rx="3" fill="#4D3D7C"/>
<rect x="242" width="14" height="14" rx="3" fill="#4D3D7C"/>
<rect x="242" y="48" width="14" height="14" rx="3" fill="#4D3D7C"/>
<rect x="242" y="80" width="14" height="14" rx="3" fill="#4D3D7C"/>
<rect x="258" y="16" width="14" height="14" rx="3" fill="#4D3D7C"/>
<rect x="258" y="32" width="14" height="14" rx="3" fill="#4D3D7C"/>
<rect x="258" y="96" width="14" height="14" rx="3" fill="#4D3D7C"/>
<rect x="307" width="14" height="14" rx="3" fill="#4D3D7C"/>
<rect x="323" width="14" height="14" rx="3" fill="#4D3D7C"/>
<rect x="339" width="14" height="14" rx="3" fill="#4D3D7C"/>
<rect x="291" y="16" width="14" height="14" rx="3" fill="#4D3D7C"/>
<rect x="355" y="16" width="14" height="14" rx="3" fill="#4D3D7C"/>
<rect x="291" y="32" width="14" height="14" rx="3" fill="#4D3D7C"/>
<rect x="339" y="32" width="14" height="14" rx="3" fill="#4D3D7C"/>
<rect x="355" y="32" width="14" height="14" rx="3" fill="#4D3D7C"/>
<rect x="291" y="48" width="14" height="14" rx="3" fill="#4D3D7C"/>
<rect x="323" y="48" width="14" height="14" rx="3" fill="#4D3D7C"/>
<rect x="355" y="48" width="14" height="14" rx="3" fill="#4D3D7C"/>
<rect x="291" y="64" width="14" height="14" rx="3" fill="#4D3D7C"/>
<rect x="307" y="64" width="14" height="14" rx="3" fill="#4D3D7C"/>
<rect x="355" y="64" width="14" height="14" rx="3" fill="#4D3D7C"/>
<rect x="291" y="80" width="14" height="14" rx="3" fill="#4D3D7C"/>
<rect x="355" y="80" width="14" height="14" rx="3" fill="#4D3D7C"/>
<rect x="307" y="96" width="14" height="14" rx="3" fill="#4D3D7C"/>
<rect x="323" y="96" width="14" height="14" rx="3" fill="#4D3D7C"/>
<rect x="339" y="96" width="14" height="14" rx="3" fill="#4D3D7C"/>
<rect x="419" width="14" height="14" rx="3" fill="#4D3D7C"/>
<rect x="419" y="16" width="14" height="14" rx="3" fill="#4D3D7C"/>
<rect x="419" y="32" width="14" height="14" rx="3" fill="#4D3D7C"/>
<rect x="419" y="48" width="14" height="14" rx="3" fill="#4D3D7C"/>
<rect x="419" y="64" width="14" height="14" rx="3" fill="#4D3D7C"/>
<rect x="419" y="80" width="14" height="14" rx="3" fill="#4D3D7C"/>
<rect x="435" y="96" width="14" height="14" rx="3" fill="#4D3D7C"/>
<rect x="451" y="96" width="14" height="14" rx="3" fill="#4D3D7C"/>
<rect x="467" y="96" width="14" height="14" rx="3" fill="#4D3D7C"/>
<rect x="483" width="14" height="14" rx="3" fill="#4D3D7C"/>
<rect x="483" y="16" width="14" height="14" rx="3" fill="#4D3D7C"/>
<rect x="483" y="32" width="14" height="14" rx="3" fill="#4D3D7C"/>
<rect x="483" y="48" width="14" height="14" rx="3" fill="#4D3D7C"/>
<rect x="483" y="64" width="14" height="14" rx="3" fill="#4D3D7C"/>
<rect x="483" y="80" width="14" height="14" rx="3" fill="#4D3D7C"/>
<rect x="532" width="14" height="14" rx="3" fill="#4D3D7C"/>
<rect x="532" y="96" width="14" height="14" rx="3" fill="#4D3D7C"/>
<rect x="548" width="14" height="14" rx="3" fill="#4D3D7C"/>
<rect x="548" y="16" width="14" height="14" rx="3" fill="#4D3D7C"/>
<rect x="548" y="32" width="14" height="14" rx="3" fill="#4D3D7C"/>
<rect x="548" y="48" width="14" height="14" rx="3" fill="#4D3D7C"/>
<rect x="548" y="64" width="14" height="14" rx="3" fill="#4D3D7C"/>
<rect x="548" y="80" width="14" height="14" rx="3" fill="#4D3D7C"/>
<rect x="548" y="96" width="14" height="14" rx="3" fill="#4D3D7C"/>
<rect x="564" width="14" height="14" rx="3" fill="#4D3D7C"/>
<rect x="564" y="96" width="14" height="14" rx="3" fill="#4D3D7C"/>
</svg>
